<svg xmlns="http://www.w3.org/2000/svg" width="880" height="480" viewBox="0 0 880 480" font-family="-apple-system,Segoe UI,Roboto,sans-serif">
<rect width="880" height="480" fill="white"/>
<text x="78" y="26" font-size="17" font-weight="700" fill="#222222">Negentropy control-byte reduction factor</text>
<text x="78" y="44" font-size="12" fill="#666">How many times less control traffic than full-set exchange, at d=2.</text>
<line x1="78" y1="416.0" x2="630" y2="416.0" stroke="#e6e6e6"/>
<text x="70" y="420.0" font-size="11" fill="#444444" text-anchor="end">1x</text>
<line x1="78" y1="348.4" x2="630" y2="348.4" stroke="#e6e6e6"/>
<text x="70" y="352.4" font-size="11" fill="#444444" text-anchor="end">39x</text>
<line x1="78" y1="280.8" x2="630" y2="280.8" stroke="#e6e6e6"/>
<text x="70" y="284.8" font-size="11" fill="#444444" text-anchor="end">76x</text>
<line x1="78" y1="213.2" x2="630" y2="213.2" stroke="#e6e6e6"/>
<text x="70" y="217.2" font-size="11" fill="#444444" text-anchor="end">114x</text>
<line x1="78" y1="145.6" x2="630" y2="145.6" stroke="#e6e6e6"/>
<text x="70" y="149.6" font-size="11" fill="#444444" text-anchor="end">151x</text>
<line x1="78" y1="78.0" x2="630" y2="78.0" stroke="#e6e6e6"/>
<text x="70" y="82.0" font-size="11" fill="#444444" text-anchor="end">188x</text>
<line x1="261.5" y1="78" x2="261.5" y2="416" stroke="#e6e6e6"/>
<text x="261.5" y="434.0" font-size="11" fill="#444444" text-anchor="middle">1k</text>
<line x1="445.7" y1="78" x2="445.7" y2="416" stroke="#e6e6e6"/>
<text x="445.7" y="434.0" font-size="11" fill="#444444" text-anchor="middle">10k</text>
<line x1="630.0" y1="78" x2="630.0" y2="416" stroke="#e6e6e6"/>
<text x="630.0" y="434.0" font-size="11" fill="#444444" text-anchor="middle">100k</text>
<line x1="78" y1="78" x2="78" y2="416" stroke="#444444"/>
<line x1="78" y1="416" x2="630" y2="416" stroke="#444444"/>
<text x="354" y="462" font-size="12" fill="#222222" text-anchor="middle">set size  n  (items, log scale)</text>
<text x="20" y="247" font-size="12" fill="#222222" text-anchor="middle" transform="rotate(-90 20 247)">reduction  (baseline / negentropy)</text>
<polyline points="78.0,416.0 165.4,413.1 261.5,409.0 349.4,397.3 445.7,360.8 533.7,309.3 630.0,78.0" fill="none" stroke="#3c8c5a" stroke-width="2.5"/>
<circle cx="78.0" cy="416.0" r="3.4" fill="#3c8c5a"/>
<circle cx="165.4" cy="413.1" r="3.4" fill="#3c8c5a"/>
<circle cx="261.5" cy="409.0" r="3.4" fill="#3c8c5a"/>
<circle cx="349.4" cy="397.3" r="3.4" fill="#3c8c5a"/>
<circle cx="445.7" cy="360.8" r="3.4" fill="#3c8c5a"/>
<circle cx="533.7" cy="309.3" r="3.4" fill="#3c8c5a"/>
<circle cx="630.0" cy="78.0" r="3.4" fill="#3c8c5a"/>
<line x1="646" y1="84" x2="668" y2="84" stroke="#3c8c5a" stroke-width="3"/>
<text x="674" y="88" font-size="11.5" fill="#222222">reduction factor</text>
<text x="630.0" y="69.0" font-size="11" font-weight="600" fill="#3c8c5a" text-anchor="middle">188x</text>
<text x="349.4" y="388.3" font-size="11" font-weight="600" fill="#3c8c5a" text-anchor="middle">12x</text>
</svg>