<svg xmlns="http://www.w3.org/2000/svg" width="880" height="500" viewBox="0 0 880 500" font-family="-apple-system,Segoe UI,Roboto,sans-serif">
<rect width="880" height="500" fill="white"/>
<text x="78" y="26" font-size="17" font-weight="700" fill="#222222">Control traffic vs difference size  (set fixed at n=10k)</text>
<text x="78" y="44" font-size="12" fill="#666">Negentropy scales with the difference d; full exchange is flat. They cross near d~5-10% of n.</text>
<line x1="78" y1="272.7" x2="630" y2="272.7" stroke="#e6e6e6"/>
<text x="70" y="276.7" font-size="11" fill="#444444" text-anchor="end">100KB</text>
<line x1="78" y1="106.8" x2="630" y2="106.8" stroke="#e6e6e6"/>
<text x="70" y="110.8" font-size="11" fill="#444444" text-anchor="end">1.0MB</text>
<line x1="174.5" y1="86" x2="174.5" y2="436" stroke="#e6e6e6"/>
<text x="174.5" y="454.0" font-size="11" fill="#444444" text-anchor="middle">10</text>
<line x1="312.5" y1="86" x2="312.5" y2="436" stroke="#e6e6e6"/>
<text x="312.5" y="454.0" font-size="11" fill="#444444" text-anchor="middle">100</text>
<line x1="450.5" y1="86" x2="450.5" y2="436" stroke="#e6e6e6"/>
<text x="450.5" y="454.0" font-size="11" fill="#444444" text-anchor="middle">1k</text>
<line x1="588.5" y1="86" x2="588.5" y2="436" stroke="#e6e6e6"/>
<text x="588.5" y="454.0" font-size="11" fill="#444444" text-anchor="middle">10k</text>
<line x1="78" y1="86" x2="78" y2="436" stroke="#444444"/>
<line x1="78" y1="436" x2="630" y2="436" stroke="#444444"/>
<text x="354" y="482" font-size="12" fill="#222222" text-anchor="middle">symmetric difference  d  (items, log scale)</text>
<text x="20" y="261" font-size="12" fill="#222222" text-anchor="middle" transform="rotate(-90 20 261)">control bytes (log scale)</text>
<polyline points="78.0,186.7 174.5,186.6 270.9,186.1 312.5,185.6 408.9,181.5 450.5,176.6 546.9,146.4 630.0,86.8" fill="none" stroke="#d1495b" stroke-width="2.5"/>
<circle cx="78.0" cy="186.7" r="3.4" fill="#d1495b"/>
<circle cx="174.5" cy="186.6" r="3.4" fill="#d1495b"/>
<circle cx="270.9" cy="186.1" r="3.4" fill="#d1495b"/>
<circle cx="312.5" cy="185.6" r="3.4" fill="#d1495b"/>
<circle cx="408.9" cy="181.5" r="3.4" fill="#d1495b"/>
<circle cx="450.5" cy="176.6" r="3.4" fill="#d1495b"/>
<circle cx="546.9" cy="146.4" r="3.4" fill="#d1495b"/>
<circle cx="630.0" cy="86.8" r="3.4" fill="#d1495b"/>
<polyline points="78.0,436.0 174.5,346.5 270.9,274.0 312.5,242.6 408.9,185.9 450.5,176.2 546.9,163.6 630.0,86.0" fill="none" stroke="#2e86ab" stroke-width="2.5"/>
<circle cx="78.0" cy="436.0" r="3.4" fill="#2e86ab"/>
<circle cx="174.5" cy="346.5" r="3.4" fill="#2e86ab"/>
<circle cx="270.9" cy="274.0" r="3.4" fill="#2e86ab"/>
<circle cx="312.5" cy="242.6" r="3.4" fill="#2e86ab"/>
<circle cx="408.9" cy="185.9" r="3.4" fill="#2e86ab"/>
<circle cx="450.5" cy="176.2" r="3.4" fill="#2e86ab"/>
<circle cx="546.9" cy="163.6" r="3.4" fill="#2e86ab"/>
<circle cx="630.0" cy="86.0" r="3.4" fill="#2e86ab"/>
<line x1="646" y1="92" x2="668" y2="92" stroke="#d1495b" stroke-width="3"/>
<text x="674" y="96" font-size="11.5" fill="#222222">default (full-set exchange)</text>
<line x1="646" y1="114" x2="668" y2="114" stroke="#2e86ab" stroke-width="3"/>
<text x="674" y="118" font-size="11.5" fill="#222222">negentropy</text>
</svg>