<svg xmlns="http://www.w3.org/2000/svg" width="880" height="470" viewBox="0 0 880 470" font-family="-apple-system,Segoe UI,Roboto,sans-serif">
<rect width="880" height="470" fill="white"/>
<text x="78" y="26" font-size="17" font-weight="700" fill="#222222">Round-trips vs set size  (the trade-off)</text>
<text x="78" y="44" font-size="12" fill="#666">Negentropy spends a few more logarithmic rounds to buy the byte savings above.</text>
<line x1="78" y1="406.0" x2="630" y2="406.0" stroke="#e6e6e6"/>
<text x="70" y="410.0" font-size="11" fill="#444444" text-anchor="end">1</text>
<line x1="78" y1="289.3" x2="630" y2="289.3" stroke="#e6e6e6"/>
<text x="70" y="293.3" font-size="11" fill="#444444" text-anchor="end">2</text>
<line x1="78" y1="172.7" x2="630" y2="172.7" stroke="#e6e6e6"/>
<text x="70" y="176.7" font-size="11" fill="#444444" text-anchor="end">3</text>
<line x1="78" y1="56.0" x2="630" y2="56.0" stroke="#e6e6e6"/>
<text x="70" y="60.0" font-size="11" fill="#444444" text-anchor="end">4</text>
<line x1="261.5" y1="56" x2="261.5" y2="406" stroke="#e6e6e6"/>
<text x="261.5" y="424.0" font-size="11" fill="#444444" text-anchor="middle">1k</text>
<line x1="445.7" y1="56" x2="445.7" y2="406" stroke="#e6e6e6"/>
<text x="445.7" y="424.0" font-size="11" fill="#444444" text-anchor="middle">10k</text>
<line x1="630.0" y1="56" x2="630.0" y2="406" stroke="#e6e6e6"/>
<text x="630.0" y="424.0" font-size="11" fill="#444444" text-anchor="middle">100k</text>
<line x1="78" y1="56" x2="78" y2="406" stroke="#444444"/>
<line x1="78" y1="406" x2="630" y2="406" stroke="#444444"/>
<text x="354" y="452" font-size="12" fill="#222222" text-anchor="middle">set size  n  (items, log scale)</text>
<text x="20" y="231" font-size="12" fill="#222222" text-anchor="middle" transform="rotate(-90 20 231)">round-trips</text>
<polyline points="78.0,406.0 165.4,406.0 261.5,406.0 349.4,406.0 445.7,406.0 533.7,406.0 630.0,406.0" fill="none" stroke="#d1495b" stroke-width="2.5" stroke-dasharray="6 4"/>
<circle cx="78.0" cy="406.0" r="3.4" fill="#d1495b"/>
<circle cx="165.4" cy="406.0" r="3.4" fill="#d1495b"/>
<circle cx="261.5" cy="406.0" r="3.4" fill="#d1495b"/>
<circle cx="349.4" cy="406.0" r="3.4" fill="#d1495b"/>
<circle cx="445.7" cy="406.0" r="3.4" fill="#d1495b"/>
<circle cx="533.7" cy="406.0" r="3.4" fill="#d1495b"/>
<circle cx="630.0" cy="406.0" r="3.4" fill="#d1495b"/>
<polyline points="78.0,289.3 165.4,289.3 261.5,289.3 349.4,172.7 445.7,172.7 533.7,56.0 630.0,56.0" fill="none" stroke="#2e86ab" stroke-width="2.5"/>
<circle cx="78.0" cy="289.3" r="3.4" fill="#2e86ab"/>
<circle cx="165.4" cy="289.3" r="3.4" fill="#2e86ab"/>
<circle cx="261.5" cy="289.3" r="3.4" fill="#2e86ab"/>
<circle cx="349.4" cy="172.7" r="3.4" fill="#2e86ab"/>
<circle cx="445.7" cy="172.7" r="3.4" fill="#2e86ab"/>
<circle cx="533.7" cy="56.0" r="3.4" fill="#2e86ab"/>
<circle cx="630.0" cy="56.0" r="3.4" fill="#2e86ab"/>
<line x1="646" y1="62" x2="668" y2="62" stroke="#d1495b" stroke-width="3"/>
<text x="674" y="66" font-size="11.5" fill="#222222">default sync</text>
<line x1="646" y1="84" x2="668" y2="84" stroke="#2e86ab" stroke-width="3"/>
<text x="674" y="88" font-size="11.5" fill="#222222">negentropy</text>
</svg>