<svg xmlns="http://www.w3.org/2000/svg" width="820" height="480" font-family="-apple-system,Segoe UI,Roboto,sans-serif">
<rect width="820" height="480" fill="white"/>
<text x="84" y="28" font-size="16" font-weight="700" fill="#222222">Control bytes to discover a 1-doc diff (dockerised pair)</text>
<line x1="84" y1="416.0" x2="670" y2="416.0" stroke="#e6e6e6"/>
<text x="76" y="420.0" font-size="11" fill="#444444" text-anchor="end">0</text>
<line x1="84" y1="343.6" x2="670" y2="343.6" stroke="#e6e6e6"/>
<text x="76" y="347.6" font-size="11" fill="#444444" text-anchor="end">40k</text>
<line x1="84" y1="271.2" x2="670" y2="271.2" stroke="#e6e6e6"/>
<text x="76" y="275.2" font-size="11" fill="#444444" text-anchor="end">80k</text>
<line x1="84" y1="198.8" x2="670" y2="198.8" stroke="#e6e6e6"/>
<text x="76" y="202.8" font-size="11" fill="#444444" text-anchor="end">120k</text>
<line x1="84" y1="126.4" x2="670" y2="126.4" stroke="#e6e6e6"/>
<text x="76" y="130.4" font-size="11" fill="#444444" text-anchor="end">160k</text>
<line x1="84" y1="54.0" x2="670" y2="54.0" stroke="#e6e6e6"/>
<text x="76" y="58.0" font-size="11" fill="#444444" text-anchor="end">200k</text>
<line x1="142.6" y1="416" x2="142.6" y2="421" stroke="#444444"/>
<text x="142.6" y="436" font-size="11" fill="#444444" text-anchor="middle">50</text>
<line x1="201.2" y1="416" x2="201.2" y2="421" stroke="#444444"/>
<text x="201.2" y="436" font-size="11" fill="#444444" text-anchor="middle">100</text>
<line x1="670.0" y1="416" x2="670.0" y2="421" stroke="#444444"/>
<text x="670.0" y="436" font-size="11" fill="#444444" text-anchor="middle">500</text>
<text x="377" y="462" font-size="12" fill="#222222" text-anchor="middle">documents (shared base, 1 diverged)</text>
<text x="18" y="235" font-size="12" fill="#222222" text-anchor="middle" transform="rotate(-90 18 235)">net control bytes (both nodes)</text>
<polyline points="142.6,397.9 201.2,383.3 670.0,376.4" fill="none" stroke="#2e86ab" stroke-width="2.5"/>
<circle cx="142.6" cy="397.9" r="3.5" fill="#2e86ab"/>
<circle cx="201.2" cy="383.3" r="3.5" fill="#2e86ab"/>
<circle cx="670.0" cy="376.4" r="3.5" fill="#2e86ab"/>
<rect x="684" y="60" width="12" height="12" fill="#2e86ab"/>
<text x="700" y="71" font-size="12" fill="#222222">ranges (RBSR)</text>
<polyline points="142.6,383.4 201.2,351.2 670.0,93.5" fill="none" stroke="#d1495b" stroke-width="2.5"/>
<circle cx="142.6" cy="383.4" r="3.5" fill="#d1495b"/>
<circle cx="201.2" cy="351.2" r="3.5" fill="#d1495b"/>
<circle cx="670.0" cy="93.5" r="3.5" fill="#d1495b"/>
<rect x="684" y="82" width="12" height="12" fill="#d1495b"/>
<text x="700" y="93" font-size="12" fill="#222222">default (broadcast)</text>
</svg>