<svg xmlns="http://www.w3.org/2000/svg" width="820" height="480" font-family="-apple-system,Segoe UI,Roboto,sans-serif">
<rect width="820" height="480" fill="white"/>
<text x="84" y="28" font-size="16" font-weight="700" fill="#222222">Reduction factor: default ÷ ranges control bytes</text>
<line x1="84" y1="416.0" x2="670" y2="416.0" stroke="#e6e6e6"/>
<text x="76" y="420.0" font-size="11" fill="#444444" text-anchor="end">0.0x</text>
<line x1="84" y1="343.6" x2="670" y2="343.6" stroke="#e6e6e6"/>
<text x="76" y="347.6" font-size="11" fill="#444444" text-anchor="end">2.0x</text>
<line x1="84" y1="271.2" x2="670" y2="271.2" stroke="#e6e6e6"/>
<text x="76" y="275.2" font-size="11" fill="#444444" text-anchor="end">4.0x</text>
<line x1="84" y1="198.8" x2="670" y2="198.8" stroke="#e6e6e6"/>
<text x="76" y="202.8" font-size="11" fill="#444444" text-anchor="end">6.0x</text>
<line x1="84" y1="126.4" x2="670" y2="126.4" stroke="#e6e6e6"/>
<text x="76" y="130.4" font-size="11" fill="#444444" text-anchor="end">8.0x</text>
<line x1="84" y1="54.0" x2="670" y2="54.0" stroke="#e6e6e6"/>
<text x="76" y="58.0" font-size="11" fill="#444444" text-anchor="end">10.0x</text>
<line x1="142.6" y1="416" x2="142.6" y2="421" stroke="#444444"/>
<text x="142.6" y="436" font-size="11" fill="#444444" text-anchor="middle">50</text>
<line x1="201.2" y1="416" x2="201.2" y2="421" stroke="#444444"/>
<text x="201.2" y="436" font-size="11" fill="#444444" text-anchor="middle">100</text>
<line x1="670.0" y1="416" x2="670.0" y2="421" stroke="#444444"/>
<text x="670.0" y="436" font-size="11" fill="#444444" text-anchor="middle">500</text>
<text x="377" y="462" font-size="12" fill="#222222" text-anchor="middle">documents (shared base, 1 diverged)</text>
<text x="18" y="235" font-size="12" fill="#222222" text-anchor="middle" transform="rotate(-90 18 235)">default ÷ ranges</text>
<polyline points="142.6,350.9 201.2,344.4 670.0,121.3" fill="none" stroke="#3c8c5a" stroke-width="2.5"/>
<circle cx="142.6" cy="350.9" r="3.5" fill="#3c8c5a"/>
<circle cx="201.2" cy="344.4" r="3.5" fill="#3c8c5a"/>
<circle cx="670.0" cy="121.3" r="3.5" fill="#3c8c5a"/>
<rect x="684" y="60" width="12" height="12" fill="#3c8c5a"/>
<text x="700" y="71" font-size="12" fill="#222222">× fewer (ranges)</text>
</svg>